<?xml version="1.0" encoding="UTF-8" standalone="no"?>
<svg
   xmlns:dc="http://purl.org/dc/elements/1.1/"
   xmlns:cc="http://creativecommons.org/ns#"
   xmlns:rdf="http://www.w3.org/1999/02/22-rdf-syntax-ns#"
   xmlns:svg="http://www.w3.org/2000/svg"
   xmlns="http://www.w3.org/2000/svg"
   id="svg8"
   version="1.1"
   viewBox="0 0 115.9973 52.300377"
   height="197.67072"
   width="438.41501">
  <defs
     id="defs2" />
  <metadata
     id="metadata5">
    <rdf:RDF>
      <cc:Work
         rdf:about="">
        <dc:format>image/svg+xml</dc:format>
        <dc:type
           rdf:resource="http://purl.org/dc/dcmitype/StillImage" />
        <dc:title></dc:title>
      </cc:Work>
    </rdf:RDF>
  </metadata>
  <g
     transform="translate(-82.544937,-174.65297)"
     id="layer1">
    <path
       id="path4609"
       d="m 100.91099,226.8115 c -1.487397,-0.16583 -5.282387,-1.38727 -6.992747,-2.25066 -5.41206,-2.73199 -9.20548,-7.60915 -10.80033,-13.88584 -0.51784,-2.038 -0.58904,-2.97274 -0.57038,-7.48806 0.0181,-4.37252 0.10585,-5.46792 0.5756,-7.18249 1.23632,-4.51255 3.29921,-8.181 6.18349,-10.99614 3.7349,-3.64537 7.87645,-5.52489 13.588747,-6.16685 5.33699,-0.59979 9.63244,0.43096 13.75548,3.30081 1.6495,1.14813 2.16698,1.38792 2.55131,1.18223 0.65886,-0.35261 1.0004,-1.06244 1.19527,-2.48419 0.15408,-1.12411 0.21605,-1.20129 0.96452,-1.20129 h 0.79986 l -0.17437,5.59891 c -0.0959,3.0794 -0.17436,6.65128 -0.17436,7.9375 v 2.33859 h -0.79375 c -0.70163,0 -0.79375,-0.0901 -0.79375,-0.77645 0,-1.06051 -0.64929,-4.02307 -1.33581,-6.09497 -0.67337,-2.03223 -1.64065,-3.44834 -3.37341,-4.9387 -4.96708,-4.27224 -11.70468,-4.35083 -15.805117,-0.18436 -5.62167,5.71221 -7.41255,21.32558 -3.70025,32.2599 1.22796,3.61687 3.90177,7.24122 6.231157,8.44635 3.15632,1.63293 7.9448,1.52096 10.97197,-0.25657 1.69656,-0.9962 4.20022,-3.43426 4.94903,-4.81936 0.87212,-1.61318 1.22644,-2.92373 1.77631,-6.57022 0.42853,-2.84176 0.4558,-2.91239 1.15625,-2.99413 0.46112,-0.0538 0.71536,0.0407 0.71175,0.26458 -0.003,0.19157 0.0674,3.95891 0.15659,8.37187 l 0.1622,8.02356 -0.74959,-0.0861 c -0.6915,-0.0794 -0.76573,-0.19885 -0.95768,-1.54127 -0.12272,-0.85818 -0.41757,-1.66468 -0.7187,-1.96581 -0.61052,-0.61052 -1.02841,-0.46652 -3.70804,1.27774 -2.07899,1.35328 -4.6576,2.45259 -6.58455,2.80711 -1.356,0.24948 -6.5203,0.29462 -8.4967,0.0743 z m 31.77153,-0.49693 c -1.88764,-0.50751 -2.96378,-1.1998 -3.84765,-2.47522 -1.08649,-1.56781 -1.44136,-2.83296 -1.45134,-5.17429 -0.0203,-4.74489 2.50096,-7.13885 10.43684,-9.91006 3.60961,-1.26048 6.20084,-2.62083 6.79136,-3.56536 0.45577,-0.72899 0.49977,-1.24973 0.43006,-5.08955 l -0.0777,-4.27747 -0.8029,-1.1416 c -1.05827,-1.50471 -2.77889,-2.1946 -4.93082,-1.97703 -1.72272,0.17418 -3.66232,0.87388 -3.65187,1.3174 0.004,0.1661 0.45253,0.57637 0.99693,0.9117 1.34904,0.83098 2.15632,2.09899 2.34373,3.68132 0.38278,3.23197 -1.7057,5.46983 -5.08176,5.44526 -2.41768,-0.0176 -3.7815,-0.89878 -4.49727,-2.90574 -1.43959,-4.03647 1.1505,-7.46003 6.89271,-9.11075 1.78976,-0.5145 2.75005,-0.61015 6.21771,-0.61934 3.5329,-0.009 4.35762,0.0709 5.95312,0.5797 2.75306,0.87784 4.55256,2.44394 5.55372,4.8334 0.45716,1.09108 0.5113,2.24353 0.64758,13.78434 0.11947,10.11849 0.22007,12.67962 0.51183,13.03073 0.44236,0.53237 1.52253,0.55032 2.415,0.0401 0.9046,-0.51711 1.23737,-0.48798 1.39696,0.12229 0.19468,0.74445 -1.86809,1.99687 -4.18322,2.53985 -4.87271,1.14282 -8.76598,-0.4079 -9.30097,-3.70466 l -0.15123,-0.93192 -1.48754,1.54364 c -2.9444,3.05543 -6.98742,4.1652 -11.12331,3.05323 z m 9.32234,-4.1339 c 0.58899,-0.17646 1.52554,-0.75334 2.08122,-1.28195 l 1.01033,-0.9611 v -6.68634 -6.68633 l -1.01746,0.91921 c -0.5596,0.50557 -1.72046,1.3976 -2.57969,1.98229 -3.51405,2.39126 -4.60162,4.05396 -4.80536,7.34653 -0.20257,3.27367 1.28106,5.44052 3.8739,5.65785 0.2014,0.0169 0.84807,-0.11369 1.43706,-0.29016 z m 18.1728,3.32789 c 0,-0.46762 0.25768,-0.62699 1.49732,-0.92604 1.08819,-0.26251 1.64847,-0.56529 2.05052,-1.10811 0.54864,-0.74073 0.55386,-0.91977 0.63238,-21.69583 0.0574,-15.18056 -0.004,-21.23605 -0.2242,-21.99165 -0.47274,-1.62484 -1.04748,-2.22488 -2.56696,-2.6799 -1.17269,-0.35118 -1.38906,-0.51457 -1.38906,-1.04896 v -0.63298 l 2.97656,0.15632 c 2.605,0.1368 6.48075,-0.10839 9.78959,-0.61932 l 0.99219,-0.1532 v 23.2203 c 0,16.9379 0.0836,23.4993 0.30894,24.25148 0.40008,1.33533 1.40818,2.33752 2.35133,2.33752 1.1112,0 1.57306,0.26078 1.57305,0.8882 v 0.567 h -8.99583 -8.99583 z m 20.37292,-0.007 c 0,-0.45707 0.20388,-0.6065 1.01436,-0.74343 1.62799,-0.27505 2.6237,-1.0283 2.94715,-2.22953 0.19427,-0.72143 0.26134,-7.65624 0.21189,-21.90633 -0.0676,-19.47448 -0.10384,-20.91397 -0.54932,-21.80877 -0.47707,-0.95825 -1.51953,-1.6578 -2.89648,-1.94369 -0.54437,-0.11302 -0.7276,-0.30758 -0.7276,-0.77256 v -0.6215 l 2.99698,0.13226 c 2.90506,0.1282 8.36609,-0.27196 9.96345,-0.73008 l 0.78438,-0.22496 0.0729,23.85824 c 0.0664,21.73186 0.1124,23.93029 0.51608,24.66662 0.47898,0.87369 1.21771,1.30628 2.70826,1.5859 0.73821,0.13849 0.94961,0.30412 0.94961,0.74402 v 0.56586 h -8.99584 -8.99583 v -0.57205 z"
       style="fill:#f3f3f3;stroke-width:0.26458332" />
  </g>
</svg>
