<?xml version="1.0" encoding="UTF-8" standalone="no"?>
<svg
   xmlns:dc="http://purl.org/dc/elements/1.1/"
   xmlns:cc="http://creativecommons.org/ns#"
   xmlns:rdf="http://www.w3.org/1999/02/22-rdf-syntax-ns#"
   xmlns:svg="http://www.w3.org/2000/svg"
   xmlns="http://www.w3.org/2000/svg"
   id="svg8"
   version="1.1"
   viewBox="0 0 138.09606 51.756628"
   height="195.6156"
   width="521.93787">
  <defs
     id="defs2" />
  <metadata
     id="metadata5">
    <rdf:RDF>
      <cc:Work
         rdf:about="">
        <dc:format>image/svg+xml</dc:format>
        <dc:type
           rdf:resource="http://purl.org/dc/dcmitype/StillImage" />
        <dc:title></dc:title>
      </cc:Work>
    </rdf:RDF>
  </metadata>
  <g
     transform="translate(-72.318886,-176.49397)"
     id="layer1">
    <path
       id="path4596"
       d="m 89.845883,227.88044 c -6.33965,-1.14999 -10.63107,-3.80438 -13.69451,-8.47051 -2.71943,-4.14217 -3.57353,-7.17395 -3.77039,-13.38369 -0.13159,-4.15051 -0.0842,-4.94977 0.43948,-7.40834 1.55087,-7.28143 5.51818,-12.73381 11.57466,-15.90739 2.93714,-1.53905 5.3404,-2.24792 8.89057,-2.62237 5.8529,-0.61733 10.288877,0.55671 15.001167,3.97028 0.62516,0.45286 1.23785,0.82339 1.36154,0.82339 0.61078,0 1.25338,-1.12426 1.42424,-2.49179 0.17984,-1.43941 0.20562,-1.47697 1.01394,-1.47742 l 0.82941,-5.3e-4 -0.16764,3.90307 c -0.0922,2.14668 -0.1815,5.72667 -0.19844,7.95552 l -0.0308,4.05254 -0.71354,-0.0837 c -0.68079,-0.0799 -0.73474,-0.19907 -1.17552,-2.59726 -0.83175,-4.52536 -1.64886,-6.38607 -3.7091,-8.44632 -2.86204,-2.86204 -5.17861,-3.81184 -9.350797,-3.83386 -2.69146,-0.0142 -3.02901,0.0425 -4.48674,0.75367 -3.74551,1.82731 -6.55248,5.86475 -7.92165,11.39422 -1.67577,6.76764 -1.58004,15.73298 0.24292,22.74915 0.72051,2.77308 1.35562,4.14927 2.81075,6.09043 1.22189,1.63003 1.81588,2.14221 3.37361,2.90898 2.1224,1.04473 3.15442,1.26125 5.41889,1.1369 2.34463,-0.12876 3.772137,-0.68647 4.927847,-1.92527 l 0.66145,-0.70901 v -6.12976 c 0,-5.40143 -0.0565,-6.23331 -0.47586,-7.00135 -0.60326,-1.10492 -1.81876,-1.84766 -3.351977,-2.04826 -2.44345,-0.31968 -2.65445,-0.39946 -2.65449,-1.00377 l -4e-5,-0.57429 H 106.169 116.22315 l 6e-5,0.72761 c 6e-5,0.62994 -0.10509,0.7276 -0.78338,0.7276 -0.93734,0 -1.74007,0.77749 -1.96527,1.90348 -0.0889,0.44468 -0.1617,4.36549 -0.1617,8.71293 v 7.90442 h -0.63315 c -0.65924,0 -0.95366,-0.43475 -0.95534,-1.4107 -5.3e-4,-0.31552 -0.23692,-0.96062 -0.52528,-1.43357 -0.74867,-1.22791 -1.45851,-1.12984 -5.16227,0.71326 -4.59267,2.28543 -7.056637,2.93077 -11.075957,2.90088 -1.76635,-0.0131 -4.06809,-0.17925 -5.11499,-0.36915 z m 34.711777,-0.22399 c -1.78861,-0.46375 -2.4709,-0.8543 -3.63265,-2.07938 -1.23171,-1.29886 -1.79214,-3.1011 -1.78872,-5.75214 0.003,-2.59925 0.71673,-4.1889 2.66653,-5.94194 1.60935,-1.44694 2.76651,-2.0168 8.05642,-3.96749 2.04275,-0.75327 4.27451,-1.69802 4.95947,-2.09943 1.93554,-1.1343 2.10417,-1.67178 1.99645,-6.36328 -0.12414,-5.40698 -0.70193,-6.5403 -3.75,-7.35554 -1.54135,-0.41224 -4.33274,0.005 -5.34145,0.79849 l -0.68514,0.53894 0.87621,0.45272 c 2.53114,1.30778 3.54844,4.33975 2.31265,6.89256 -1.2037,2.48651 -5.06492,3.43819 -7.4702,1.84118 -1.78177,-1.18302 -2.5507,-4.23487 -1.62574,-6.45252 1.42727,-3.422 6.67012,-5.62165 13.36972,-5.6093 5.95433,0.011 9.67996,1.8568 11.14382,5.52109 0.58015,1.4522 0.59541,1.76079 0.67537,13.65661 0.0536,7.97448 0.18127,12.4217 0.37028,12.89843 0.34026,0.85823 1.35238,0.97876 2.63767,0.31411 0.6235,-0.32243 0.88284,-0.34443 1.17748,-0.0999 0.59435,0.49327 0.46318,0.73554 -0.84871,1.56751 -3.3047,2.09578 -9.39559,2.04133 -11.30854,-0.10109 -0.63135,-0.70709 -1.22321,-2.0858 -1.22321,-2.84942 0,-0.49088 -0.22566,-0.3373 -1.33772,0.9104 -0.94745,1.06302 -1.89666,1.77713 -3.2536,2.44777 -1.66236,0.82158 -2.22935,0.96195 -4.28468,1.06076 -1.45748,0.0701 -2.87774,-0.0181 -3.69171,-0.22914 z m 9.81045,-4.51179 c 2.51312,-1.17021 2.49268,-1.09869 2.49268,-8.7189 v -6.6326 l -0.99219,0.95251 c -0.5457,0.52387 -1.67122,1.38156 -2.50114,1.90597 -2.42249,1.53072 -4.06797,3.34412 -4.55516,5.01999 -1.04618,3.59874 0.005,7.14452 2.31573,7.8136 1.31434,0.38052 1.80145,0.32932 3.24008,-0.34057 z m 17.83851,3.60746 c 0,-0.32742 0.14883,-0.60905 0.33073,-0.62583 1.64261,-0.15158 2.58976,-0.56336 3.17139,-1.37878 l 0.59892,-0.83966 0.076,-12.50297 c 0.051,-8.39866 -0.0184,-12.85332 -0.21143,-13.57026 -0.42685,-1.58519 -1.4863,-2.63585 -2.8411,-2.81753 -0.96394,-0.12926 -1.12448,-0.24025 -1.12448,-0.77741 v -0.62662 l 4.0349,-0.008 c 3.65001,-0.007 5.67241,-0.15953 8.79739,-0.66184 l 1.05833,-0.17011 v 15.30287 c 0,11.91601 0.0757,15.48203 0.34195,16.11235 0.3959,0.93721 1.3577,1.57734 2.76691,1.84153 0.77927,0.14609 0.99219,0.30745 0.99218,0.75188 v 0.56587 h -8.99583 -8.99583 v -0.59532 z m 20.37292,0.003 c 0,-0.49267 0.18896,-0.62179 1.12448,-0.76833 1.74423,-0.27322 2.75439,-1.49396 2.97608,-3.59648 0.3038,-2.88132 0.002,-24.026 -0.35829,-25.12732 -0.39572,-1.20862 -1.38283,-2.01748 -2.72374,-2.2319 -0.84964,-0.13586 -1.01853,-0.26694 -1.01853,-0.79051 v -0.62764 l 3.77031,-0.002 c 3.47433,-0.002 6.78173,-0.24913 9.06745,-0.67793 l 0.92057,-0.1727 v 2.71497 2.71498 l 0.7609,-1.03188 c 2.48583,-3.37101 6.01286,-4.83538 10.88077,-4.51741 4.63736,0.30291 6.83129,1.87701 7.79358,5.59174 0.33538,1.29469 0.41056,3.54416 0.42002,12.56771 0.006,6.04492 0.11177,11.50965 0.23429,12.14386 0.3765,1.94884 1.0406,2.57265 3.25992,3.06213 0.52837,0.11654 0.7276,0.32211 0.7276,0.75075 l -1e-5,0.59027 -8.59895,0.006 c -8.55519,0.006 -8.59895,0.003 -8.59895,-0.54866 0,-0.43212 0.27732,-0.63774 1.25677,-0.93185 1.0439,-0.31345 1.3464,-0.55663 1.78593,-1.43571 0.50641,-1.01281 0.52917,-1.5875 0.52917,-13.36145 v -12.30313 l -0.61457,-1.23574 c -1.37498,-2.76477 -5.21235,-2.74961 -7.81315,0.0309 -1.98582,2.123 -2.02332,2.40253 -2.02332,15.08152 0,12.72845 -0.0318,12.53781 2.20746,13.22366 0.94901,0.29067 1.23212,0.50345 1.23212,0.92605 0,0.54391 -0.0745,0.54866 -8.59896,0.54866 h -8.59895 v -0.59218 z m -14.13261,-40.33304 c -2.75212,-0.77198 -4.37123,-4.23223 -3.2317,-6.90659 0.97066,-2.27805 4.19386,-3.51017 7.4268,-2.83902 2.62006,0.54393 4.11667,2.31531 4.11667,4.87246 0,2.3003 -0.89945,3.75559 -2.81611,4.55643 -1.24131,0.51865 -4.17337,0.68763 -5.49566,0.31672 z"
       style="fill:#f3f3f3;stroke-width:0.26458332" />
  </g>
</svg>
