<?xml version="1.0" encoding="UTF-8" standalone="no"?>
<!-- Created with Inkscape (http://www.inkscape.org/) -->

<svg
   xmlns:dc="http://purl.org/dc/elements/1.1/"
   xmlns:cc="http://creativecommons.org/ns#"
   xmlns:rdf="http://www.w3.org/1999/02/22-rdf-syntax-ns#"
   xmlns:svg="http://www.w3.org/2000/svg"
   xmlns="http://www.w3.org/2000/svg"
   xmlns:sodipodi="http://sodipodi.sourceforge.net/DTD/sodipodi-0.dtd"
   xmlns:inkscape="http://www.inkscape.org/namespaces/inkscape"
   width="521.23944"
   height="182.51582"
   viewBox="0 0 137.91126 48.290645"
   version="1.1"
   id="svg8"
   inkscape:version="0.92.1 r15371"
   sodipodi:docname="gree.svg">
  <defs
     id="defs2" />
  <sodipodi:namedview
     id="base"
     pagecolor="#ffffff"
     bordercolor="#666666"
     borderopacity="1.0"
     inkscape:pageopacity="0.0"
     inkscape:pageshadow="2"
     inkscape:zoom="0.49497475"
     inkscape:cx="298.80287"
     inkscape:cy="-134.34917"
     inkscape:document-units="mm"
     inkscape:current-layer="layer1"
     showgrid="false"
     fit-margin-top="0"
     fit-margin-left="0"
     fit-margin-right="0"
     fit-margin-bottom="0"
     units="px"
     inkscape:window-width="1366"
     inkscape:window-height="706"
     inkscape:window-x="-8"
     inkscape:window-y="-8"
     inkscape:window-maximized="1" />
  <metadata
     id="metadata5">
    <rdf:RDF>
      <cc:Work
         rdf:about="">
        <dc:format>image/svg+xml</dc:format>
        <dc:type
           rdf:resource="http://purl.org/dc/dcmitype/StillImage" />
        <dc:title></dc:title>
      </cc:Work>
    </rdf:RDF>
  </metadata>
  <g
     inkscape:label="Layer 1"
     inkscape:groupmode="layer"
     id="layer1"
     transform="translate(-67.250951,-175.86716)">
    <path
       style="fill:#f3f3f3;stroke-width:0.26458332"
       d="m 156.66423,224.07135 c -5.75823,-0.62525 -9.71398,-3.92362 -11.6502,-9.71414 -1.47104,-4.39933 -1.39995,-11.15432 0.16685,-15.85365 2.04733,-6.14057 7.71798,-10.07569 14.54361,-10.09246 7.88703,-0.0194 12.0268,4.06866 12.65513,12.49697 l 0.15286,2.05052 h -9.22655 -9.22656 l -0.1706,1.38906 c -0.17894,1.45697 0.1884,5.81243 0.61288,7.26685 0.4618,1.58226 1.91444,4.24024 2.75849,5.04739 1.57175,1.50301 2.98222,2.0398 5.34979,2.03596 1.86183,-0.003 2.34771,-0.111 3.86889,-0.85988 1.57963,-0.77765 3.13287,-2.13787 4.21237,-3.68891 0.28715,-0.41259 0.57559,-0.53917 0.98478,-0.43216 0.73101,0.19116 0.72271,0.43059 -0.0743,2.14253 -1.71306,3.67954 -4.83036,6.72277 -7.91978,7.73161 -1.4192,0.46344 -4.96464,0.70541 -7.03766,0.48031 z m 7.39911,-24.25741 c -0.0242,-5.27541 -1.66419,-9.4712 -3.86658,-9.89221 -2.37432,-0.45388 -4.53276,1.95912 -5.62643,6.28999 -0.49989,1.97955 -0.7671,5.00534 -0.47439,5.37197 0.21104,0.26435 1.40826,0.33323 5.12599,0.29494 l 4.85064,-0.05 -0.009,-2.01472 z m 25.93839,24.27163 c -2.89766,-0.19826 -3.6087,-0.39011 -5.82618,-1.57201 -3.05996,-1.63094 -5.61187,-4.93203 -6.71543,-8.68692 -0.7321,-2.49095 -1.04779,-7.08018 -0.69772,-10.14276 0.38846,-3.39841 0.87124,-5.12485 2.08951,-7.47216 2.54579,-4.90514 7.69547,-7.78714 13.93851,-7.80062 7.36394,-0.0159 11.63736,4.26661 12.20642,12.23239 l 0.16538,2.3151 h -9.30003 -9.30004 v 2.76083 c 0,6.20775 2.03712,10.84952 5.41781,12.34496 2.29872,1.01683 5.22647,0.90284 7.47365,-0.29099 1.06858,-0.56769 2.62981,-1.97737 3.57433,-3.22736 0.53158,-0.7035 0.86442,-0.91997 1.25677,-0.81737 0.78748,0.20593 0.66193,1.02933 -0.46161,3.02746 -1.33504,2.37427 -2.54597,3.80208 -4.36292,5.14435 -2.55489,1.88743 -5.12641,2.4815 -9.45845,2.1851 z m 6.78411,-22.90093 c 0.2482,-0.98889 -0.30855,-5.4484 -0.92914,-7.44237 -0.89692,-2.8818 -2.28641,-4.09546 -4.34318,-3.79359 -0.96698,0.14192 -2.38174,1.54094 -3.19863,3.16303 -0.73984,1.46911 -1.40738,4.25501 -1.65313,6.8992 l -0.1756,1.88935 h 5.06004 5.06004 z M 85.359022,223.87397 c -5.098812,-0.81967 -9.133607,-2.81039 -12.25119,-6.0446 -2.913569,-3.02256 -4.940037,-7.40781 -5.621856,-12.16564 -0.473872,-3.30673 -0.196764,-9.97784 0.523122,-12.59364 2.10952,-7.66524 7.371351,-13.48315 14.34158,-15.85722 3.131753,-1.06668 4.907031,-1.34562 8.564594,-1.34571 4.858139,-1.2e-4 7.549719,0.80563 11.347638,3.39703 0.88932,0.60679 1.81373,1.17747 2.05425,1.26816 0.76072,0.28685 1.29511,-0.41237 1.61943,-2.11896 0.29413,-1.54772 0.35795,-1.64855 1.04341,-1.64855 h 0.73012 l -0.0631,7.93676 -0.063,7.93676 -0.8198,8e-4 -0.8198,7.9e-4 -0.30848,-2.18281 c -0.52651,-3.72562 -1.6212,-6.62793 -3.12946,-8.29705 -2.45809,-2.72026 -5.409909,-4.20696 -8.954999,-4.51022 -6.40125,-0.5476 -11.166925,3.70517 -13.388282,11.94737 -1.599785,5.9359 -1.682822,14.3211 -0.21163,21.3707 1.226095,5.87514 3.552738,9.4016 7.317507,11.09103 1.019509,0.4575 1.803988,0.57187 4.043072,0.58941 2.494893,0.0196 2.898463,-0.0457 3.958513,-0.63968 0.64921,-0.3638 1.45288,-1.06602 1.78593,-1.56048 0.58064,-0.86203 0.60556,-1.1158 0.60556,-6.16669 0,-3.01738 -0.12684,-5.77141 -0.29693,-6.44686 -0.47974,-1.90526 -1.83625,-2.75327 -4.99474,-3.12242 -0.654843,-0.0765 -1.22039,-0.14521 -1.256771,-0.1526 -0.03638,-0.007 -0.06617,-0.28134 -0.0662,-0.60876 l -5.6e-5,-0.59532 h 10.054146 10.05414 l 8e-5,0.60193 c 6e-5,0.45397 -0.19048,0.64004 -0.77514,0.75697 -0.42637,0.0853 -1.05145,0.4489 -1.38906,0.80806 -0.61226,0.65131 -0.61406,0.67527 -0.69668,9.24701 l -0.0828,8.594 -0.69502,-0.0821 c -0.57859,-0.0684 -0.71192,-0.23724 -0.79588,-1.00815 -0.0555,-0.50932 -0.30657,-1.28323 -0.558,-1.71979 -0.73294,-1.27263 -1.51827,-1.17714 -5.15576,0.62689 -4.985839,2.47275 -5.989779,2.74376 -10.489046,2.83153 -2.110052,0.0412 -4.431771,-0.0209 -5.159375,-0.13783 z m 28.442708,-1.26694 c 0,-0.48853 0.18955,-0.6225 1.08289,-0.76535 1.62035,-0.2591 2.53051,-1.16408 2.8842,-2.86779 0.45618,-2.19741 0.23792,-24.57654 -0.25159,-25.79693 -0.53276,-1.3282 -1.41076,-2.08829 -2.63913,-2.28472 -0.90791,-0.14518 -1.07637,-0.27035 -1.07637,-0.79976 v -0.62764 l 4.03489,-0.008 c 3.62981,-0.007 6.38855,-0.22008 8.86355,-0.68348 l 0.85989,-0.161 v 2.85938 2.85937 l 0.7509,-1.17628 c 1.00921,-1.58091 2.98662,-3.35271 4.4781,-4.01246 1.53349,-0.67834 4.06533,-0.89225 5.61892,-0.47475 1.4789,0.39743 3.18939,2.09397 3.64526,3.61552 0.80831,2.69788 0.0499,5.47353 -1.86865,6.83916 -0.98722,0.70269 -1.32761,0.79295 -2.96723,0.78677 -2.96359,-0.0112 -4.59152,-1.29551 -4.83345,-3.8133 -0.13848,-1.44121 0.64843,-3.56523 1.67983,-4.53418 1.16058,-1.09032 0.73664,-1.2001 -1.72775,-0.4474 -1.23888,0.37838 -3.09564,2.32525 -3.94467,4.13609 l -0.69897,1.49077 v 11.25136 11.25135 l 0.61754,0.78719 c 0.8298,1.05777 1.44213,1.3578 3.54966,1.73929 1.53201,0.27731 1.78593,0.40188 1.78594,0.87621 0,0.55103 -0.0342,0.55294 -9.92188,0.55294 h -9.92187 z"
       id="path4622"
       inkscape:connector-curvature="0" />
  </g>
</svg>
