<?xml version="1.0" encoding="UTF-8" standalone="no"?>
<svg
   xmlns:dc="http://purl.org/dc/elements/1.1/"
   xmlns:cc="http://creativecommons.org/ns#"
   xmlns:rdf="http://www.w3.org/1999/02/22-rdf-syntax-ns#"
   xmlns:svg="http://www.w3.org/2000/svg"
   xmlns="http://www.w3.org/2000/svg"
   id="svg8"
   version="1.1"
   viewBox="0 0 175.35293 47.208166"
   height="178.42458"
   width="662.75122">
  <defs
     id="defs2" />
  <metadata
     id="metadata5">
    <rdf:RDF>
      <cc:Work
         rdf:about="">
        <dc:format>image/svg+xml</dc:format>
        <dc:type
           rdf:resource="http://purl.org/dc/dcmitype/StillImage" />
        <dc:title></dc:title>
      </cc:Work>
    </rdf:RDF>
  </metadata>
  <g
     transform="translate(43.933904,23.383948)"
     id="layer1">
    <g
       style="fill:#8d8eff;fill-opacity:0.54166667"
       transform="matrix(1.0414643,0,0,1.0414643,-7.578428,-0.51554321)"
       id="g4841">
      <g
         style="fill:#8d8eff;fill-opacity:0.54166667"
         id="g4511"
         transform="matrix(0.01799626,0,0,0.01799626,132.74403,9.6734026)" />
    </g>
    <path
       id="path4886"
       d="m 19.235667,23.661391 c -2.783819,-0.46601 -5.989611,-2.14798 -7.856712,-4.12216 -2.894584,-3.0606 -4.049538,-6.86008 -4.049538,-13.3218899 0,-4.74452 0.421452,-7.27763 1.663335,-9.99734 1.600078,-3.50417 3.984278,-5.65108 7.814974,-7.0371901 1.868609,-0.67614 2.829097,-0.85237 5.331333,-0.97818 8.802621,-0.44259 14.540741,3.3312501 16.574941,10.90100011 0.40731,1.5157 0.49736,2.78914999 0.49576,7.01145999 -0.002,5.6348199 -0.35659,7.6359599 -1.88784,10.6577299 -1.52751,3.01441 -5.07344,5.64953 -8.966883,6.66364 -1.465945,0.38183 -7.315819,0.52483 -9.11937,0.22293 z m 6.106139,-1.74174 c 1.734106,-1.16861 2.82715,-3.50374 3.57832,-7.64456 0.609912,-3.36214 0.62625,-12.8160399 0.02812,-16.2735199 -0.821359,-4.74787 -2.769507,-8.0044901 -5.043588,-8.4311101 -1.140584,-0.21398 -1.796526,-0.0141 -2.842929,0.8664201 -2.736078,2.30225 -3.803359,6.80198 -3.78192,15.9448 0.01802,7.6804299 0.756142,11.4879399 2.777371,14.3264899 1.298887,1.82412 3.594582,2.3504 5.284621,1.21148 z m 88.115254,1.52088 c -5.13304,-1.4328 -8.79652,-5.55093 -9.99734,-11.23802 -0.65084,-3.0823599 -0.64293,-8.8732999 0.0161,-11.77395989 1.43624,-6.32170001 5.83927,-10.79869011 11.72847,-11.92548011 6.9973,-1.3388 12.35515,0.7867 14.63003,5.8038501 0.80692,1.77962 1.5847,5.31793001 1.5847,7.20919 v 1.1614 h -9.26042 -9.26042 v 2.76083 c 0,9.3866699 4.41094,14.5050699 10.99022,12.7529099 1.83792,-0.48946 3.26143,-1.44954 4.88637,-3.29557 1.00253,-1.13893 1.51849,-1.53374 1.88062,-1.43904 0.63149,0.16514 0.62695,0.52028 -0.0262,2.04398 -1.28758,3.00379 -3.98522,5.88838 -6.8237,7.29658 -1.71443,0.85054 -1.90922,0.88556 -5.35107,0.96195 -2.57952,0.0572 -3.96791,-0.0313 -4.99736,-0.31862 z m 9.56292,-22.1520799 c 0.20815,-0.61606999 -0.0945,-4.55378 -0.49315,-6.41615 -0.76671,-3.58188 -2.11273,-5.3063401 -4.10113,-5.2542001 -2.75258,0.0722 -4.89865,4.0083501 -5.41543,9.93265011 l -0.18043,2.06842999 h 5.0392 c 3.79537,0 5.06678,-0.0816 5.15094,-0.33073 z M -43.735098,22.357251 c -5.9e-5,-0.47563 0.245885,-0.60928 1.617972,-0.87923 1.887376,-0.37131 2.728436,-1.10535 2.974887,-2.59634 0.256257,-1.55029 0.185047,-37.38208 -0.07653,-38.508924 -0.312766,-1.347364 -1.095438,-1.961893 -2.967849,-2.330267 -1.639163,-0.322488 -1.901958,-0.490273 -1.678753,-1.071833 0.110464,-0.287806 2.029489,-0.354605 10.187335,-0.354605 h 10.051235 l -1.9e-5,0.564454 c -1.6e-5,0.58823 -0.607369,0.87947 -1.852099,0.88813 -1.132324,0.0079 -2.31989,0.929412 -2.628122,2.039382 -0.170532,0.614105 -0.279919,4.484293 -0.280818,9.9356331 l -0.0015,8.92969 h 8.598959 8.598958 v -9.1366201 c 0,-11.3092 0.0172,-11.244657 -3.145671,-11.801785 -1.387827,-0.244462 -1.616834,-0.365115 -1.616863,-0.851842 l -3.5e-5,-0.567042 10.120347,0.0364 c 9.921288,0.03568 10.12194,0.04686 10.201373,0.568439 0.06974,0.457948 -0.11448,0.558064 -1.322916,0.718923 -2.15581998,0.286969 -3.02685198,0.942493 -3.36837898,2.534975 -0.397251,1.852312 -0.391615,36.758562 0.0062,38.613672 0.349372,1.62907 1.141979,2.22804 3.30612798,2.49843 1.238085,0.15469 1.430199,0.2561 1.430199,0.75497 v 0.57627 H -5.767448 -15.953906 v -0.57048 c 0,-0.48722 0.201805,-0.59824 1.382657,-0.76065 0.760462,-0.10459 1.659517,-0.37157 1.9979,-0.59328 1.344592,-0.88102 1.381932,-1.18612 1.381932,-11.2916099 V 0.29626111 h -8.598958 -8.598959 V 9.5651711 c 0,11.4534599 -0.0231,11.3657599 3.149627,11.9557899 1.359098,0.25276 1.612876,0.38627 1.612881,0.84856 1.1e-5,0.54547 -0.05759,0.54861 -10.054098,0.54861 H -43.73503 Z m 86.783268,-0.005 c 0,-0.4734 0.20248,-0.6123 1.11815,-0.767 0.7359,-0.12433 1.40514,-0.47589 1.95762,-1.02837 1.15425,-1.15426 1.2157,-2.01675 1.10424,-15.4979799 -0.10336,-12.50126 -0.14824,-12.85459 -1.77174,-13.9471 -0.49447,-0.33274 -1.24652,-0.60498 -1.67123,-0.60498 -0.67723,0 -0.7619,-0.0849 -0.68847,-0.6901301 l 0.0837,-0.69013 3.83646,0.0389 c 2.24713,0.0228 5.03382,-0.12978 6.72678,-0.36821 1.58968,-0.22388 2.92914,-0.40706 2.97656,-0.40706 0.0474,0 0.0862,1.20849 0.0862,2.6855301 v 2.68553 l 0.84232,-1.16418 c 0.46328,-0.64029 0.96929,-1.28495 1.12448,-1.43256 1.22035,-1.16078 2.70044,-2.0167701 4.35747,-2.5200801 1.66419,-0.50548 2.31999,-0.56885 4.49291,-0.43415 4.81189,0.29829 6.83629,1.69494 8.08531,5.5781501 0.13633,0.42384 0.27886,0.31923 0.90127,-0.66146 1.89017,-2.97819 4.94975,-4.6617401 8.9586,-4.9295101 3.76317,-0.25136 6.62125,0.59368 8.23878,2.4359501 1.9226,2.18972 2.15676,4.08383 2.15867,17.4613 8e-4,6.4312499 0.10684,10.7050899 0.28082,11.3316399 0.31881,1.14805 1.34319,1.90726 2.93668,2.17648 0.81116,0.13704 1.01436,0.28618 1.01436,0.74449 v 0.57313 l -8.46662,-0.001 -8.46662,-10e-4 -5e-5,-0.58511 c -3e-5,-0.4586 0.22841,-0.64663 1.05652,-0.86962 2.02604,-0.54556 1.98615,-0.25044 1.98615,-14.6934199 0,-11.89071 -0.0322,-12.77988 -0.49965,-13.81658 -0.88196,-1.95584 -3.42175,-2.43028 -5.9916,-1.11924 -1.09915,0.56074 -1.95012,1.55588 -2.93739,3.43501 -0.62271,1.18527 -0.62591,1.23829 -0.71094,11.77396 -0.0584,7.2415299 0.01,11.0203099 0.21625,11.9672099 0.35008,1.60601 1.06158,2.30062 2.61021,2.54826 0.87111,0.13929 1.03355,0.26341 1.00227,0.76582 l -0.0373,0.59959 -8.26914,-0.003 -8.26914,-0.003 v -0.57021 c 0,-0.43836 0.25953,-0.65248 1.12248,-0.92604 1.97195,-0.62513 1.92023,-0.22355 1.92023,-14.9079199 0,-14.58352 0.0349,-14.30988 -1.92807,-15.13005 -2.37945,-0.9942 -5.4178,0.51456 -7.02497,3.48838 -0.56217,1.04022 -0.57196,1.263 -0.57196,13.01112 0,11.7208699 0.0108,11.9672799 0.55452,12.6999999 0.32016,0.43143 0.96312,0.8508 1.52135,0.99232 0.72313,0.18332 0.96682,0.3834 0.96677,0.79375 -5e-5,0.54358 -0.0782,0.5487 -8.46666,0.55468 l -8.46661,0.006 z"
       style="fill:#f3f3f3;stroke-width:0.26458332" />
  </g>
  <style
     type="text/css"
     id="style4503">
	.st0{fill:#33348E;}
	.st1{fill:#CC2229;}
</style>
</svg>
