<?xml version="1.0" encoding="UTF-8" standalone="no"?>
<!-- Created with Inkscape (http://www.inkscape.org/) -->

<svg
   xmlns:dc="http://purl.org/dc/elements/1.1/"
   xmlns:cc="http://creativecommons.org/ns#"
   xmlns:rdf="http://www.w3.org/1999/02/22-rdf-syntax-ns#"
   xmlns:svg="http://www.w3.org/2000/svg"
   xmlns="http://www.w3.org/2000/svg"
   xmlns:sodipodi="http://sodipodi.sourceforge.net/DTD/sodipodi-0.dtd"
   xmlns:inkscape="http://www.inkscape.org/namespaces/inkscape"
   width="196"
   height="69"
   viewBox="0 0 51.858334 18.256249"
   version="1.1"
   id="svg8"
   inkscape:version="0.92.1 r15371"
   sodipodi:docname="logo.svg">
  <defs
     id="defs2" />
  <sodipodi:namedview
     id="base"
     pagecolor="#ffffff"
     bordercolor="#666666"
     borderopacity="1.0"
     inkscape:pageopacity="0.0"
     inkscape:pageshadow="2"
     inkscape:zoom="2.8"
     inkscape:cx="80.143507"
     inkscape:cy="36.286026"
     inkscape:document-units="mm"
     inkscape:current-layer="layer1"
     showgrid="false"
     fit-margin-top="0"
     fit-margin-left="0"
     fit-margin-right="0"
     fit-margin-bottom="0"
     units="px"
     inkscape:window-width="1366"
     inkscape:window-height="706"
     inkscape:window-x="-8"
     inkscape:window-y="-8"
     inkscape:window-maximized="1" />
  <metadata
     id="metadata5">
    <rdf:RDF>
      <cc:Work
         rdf:about="">
        <dc:format>image/svg+xml</dc:format>
        <dc:type
           rdf:resource="http://purl.org/dc/dcmitype/StillImage" />
        <dc:title></dc:title>
      </cc:Work>
    </rdf:RDF>
  </metadata>
  <g
     inkscape:label="Layer 1"
     inkscape:groupmode="layer"
     id="layer1"
     transform="translate(-138.24443,-1.1527233)">
    <path
       style="fill:#ffffff;fill-opacity:1;stroke-width:0.26458335"
       d="m 138.24443,1.1527233 v 9.1281247 9.128125 h 25.92917 25.92917 V 10.280848 1.1527233 H 164.1736 Z m 8.98137,4.6085043 c 2.18912,0 4.05574,1.2143627 4.71547,2.8918132 h -5.33611 l -2.26239,4.7738682 c -1.26137,-0.768441 -2.08773,-2.02401 -2.08773,-3.4390662 0,-2.3278137 2.23248,-4.2266152 4.97076,-4.2266152 z m 10.77298,1.5539103 h 4.92167 l -0.20051,0.8113199 h -3.69228 c -0.91651,0 -1.96978,0.8283601 -2.20968,1.7223756 l -0.23048,0.8624796 c -0.20242,0.757196 -0.0752,2.190564 0.70073,2.190564 h 1.8464 c 0.27739,0 0.52104,-0.324002 0.61288,-0.590145 l 0.2775,-0.81132 c 0.0844,-0.243652 0.21149,-0.763261 -0.0434,-0.763261 h -1.54978 l 0.47801,-0.8862507 3.39772,-0.024288 -0.6165,2.5114747 c -0.14806,0.601633 -0.8172,1.352889 -1.43195,1.352889 h -3.86488 c -1.13579,0 -2.25648,-1.158297 -1.82728,-2.953825 l 0.20619,-0.8619627 c 0.298,-1.2482481 1.92866,-2.5600504 3.22564,-2.5600504 z m 5.91695,0 5.26273,0.00155 c 0.9315,0 1.48642,0.8397851 1.45831,1.3776939 -0.06,1.1151764 -1.13401,1.9138862 -2.19108,2.0675742 l 1.62522,2.903182 h -2.28875 l -2.01279,-3.6793623 h 1.865 c 0.611,0 1.01379,-0.5902042 1.08314,-0.9725504 0.06,-0.3354901 -0.1276,-0.9110556 -0.46871,-0.9110556 h -2.53576 l -1.3286,5.5872563 -2.04329,-0.02429 z m 10.15856,0 h 3.81578 c -0.0675,0.2717657 -0.13477,0.5416213 -0.20412,0.813387 h -2.5864 c -0.91651,0 -1.9703,0.82836 -2.21021,1.7223754 l -0.03,0.114205 h 4.36924 l -0.19327,0.7684287 h -4.38009 c -0.19305,0.755321 -0.0636,2.147726 0.68988,2.168343 v 0.0077 h 3.19722 l -0.20774,0.781347 h -3.86488 c -1.13392,0 -2.25648,-1.158296 -1.82727,-2.953824 l 0.20618,-0.8619632 c 0.29801,-1.2482481 1.92867,-2.5600504 3.22565,-2.5600504 z m 7.08638,0 h 3.81579 c -0.0675,0.2717657 -0.13645,0.5416213 -0.20205,0.813387 h -2.58692 c -0.91651,0 -1.96979,0.82836 -2.20969,1.7223754 l -0.03,0.114205 h 4.36924 l -0.19327,0.7684287 h -4.38216 c -0.19305,0.755321 -0.0636,2.147726 0.68988,2.168343 v 0.0077 h 3.19774 l -0.20826,0.781347 h -3.86488 c -1.13579,0 -2.25648,-1.158296 -1.82728,-2.953824 L 177.935,9.8751868 c 0.29801,-1.2482481 1.92867,-2.5600504 3.22564,-2.5600504 z m -34.50848,2.1083984 5.49889,0.00207 c 0.03,0.1836762 0.045,0.3729408 0.045,0.5622396 0,2.3278141 -2.23197,4.2260991 -4.97024,4.2260991 -0.37673,0 -0.74267,-0.03556 -1.09503,-0.104904 l 1.2914,-2.950207 c 0.27364,-0.62225 -0.1065,-1.229248 -0.76998,-1.7352946 z"
       id="path4871"
       inkscape:connector-curvature="0" />
    <g
       id="g4841"
       transform="matrix(1.0414643,0,0,1.0414643,-7.578428,-0.51554321)"
       style="fill:#8d8eff;fill-opacity:0.54166667">
      <g
         transform="matrix(0.01799626,0,0,0.01799626,132.74403,9.6734026)"
         id="g4511"
         style="fill:#8d8eff;fill-opacity:0.54166667" />
    </g>
  </g>
  <style
     id="style4503"
     type="text/css">
	.st0{fill:#33348E;}
	.st1{fill:#CC2229;}
</style>
</svg>
