<?xml version="1.0" encoding="UTF-8" standalone="no"?>
<svg
   xmlns:dc="http://purl.org/dc/elements/1.1/"
   xmlns:cc="http://creativecommons.org/ns#"
   xmlns:rdf="http://www.w3.org/1999/02/22-rdf-syntax-ns#"
   xmlns:svg="http://www.w3.org/2000/svg"
   xmlns="http://www.w3.org/2000/svg"
   id="svg8"
   version="1.1"
   viewBox="0 0 5.905878 5.9058778"
   height="22.321428"
   width="22.321428">
  <defs
     id="defs2">
    <filter
       id="Adobe_OpacityMaskFilter"
       filterUnits="userSpaceOnUse"
       x="2152.8999"
       y="-257.10001"
       width="157"
       height="30.5">
      <feColorMatrix
         style="color-interpolation-filters:sRGB"
         type="matrix"
         values="-1 0 0 0 1  0 -1 0 0 1  0 0 -1 0 1  0 0 0 1 0"
         result="source"
         id="feColorMatrix4682" />
    </filter>
    <filter
       id="Adobe_OpacityMaskFilter-3"
       filterUnits="userSpaceOnUse"
       x="2152.8999"
       y="-257.10001"
       width="157"
       height="30.5">
      <feColorMatrix
         style="color-interpolation-filters:sRGB"
         type="matrix"
         values="-1 0 0 0 1  0 -1 0 0 1  0 0 -1 0 1  0 0 0 1 0"
         result="source"
         id="feColorMatrix4767" />
    </filter>
    <filter
       id="Adobe_OpacityMaskFilter-7"
       filterUnits="userSpaceOnUse"
       x="2152.8999"
       y="-257.10001"
       width="157"
       height="30.5">
      <feColorMatrix
         style="color-interpolation-filters:sRGB"
         type="matrix"
         values="-1 0 0 0 1  0 -1 0 0 1  0 0 -1 0 1  0 0 0 1 0"
         result="source"
         id="feColorMatrix4852" />
    </filter>
    <filter
       id="Adobe_OpacityMaskFilter-0"
       filterUnits="userSpaceOnUse"
       x="2152.8999"
       y="-257.10001"
       width="157"
       height="30.5">
      <feColorMatrix
         style="color-interpolation-filters:sRGB"
         type="matrix"
         values="-1 0 0 0 1  0 -1 0 0 1  0 0 -1 0 1  0 0 0 1 0"
         result="source"
         id="feColorMatrix4937" />
    </filter>
  </defs>
  <metadata
     id="metadata5">
    <rdf:RDF>
      <cc:Work
         rdf:about="">
        <dc:format>image/svg+xml</dc:format>
        <dc:type
           rdf:resource="http://purl.org/dc/dcmitype/StillImage" />
        <dc:title></dc:title>
      </cc:Work>
    </rdf:RDF>
  </metadata>
  <g
     transform="translate(-9.6525558,-73.010843)"
     id="layer1">
    <g
       style="fill:#212121;fill-opacity:1"
       transform="matrix(0.39372519,0,0,0.39372519,9.6525558,73.010843)"
       id="g5413">
      <g
         style="fill:#212121;fill-opacity:1"
         id="g5357">
        <path
           style="fill:#212121;fill-opacity:1"
           d="M 14.982,7 C 14.736,3.256 11.744,0.263 8,0.017 V 0 H 7.5 7 V 0.017 C 3.256,0.263 0.263,3.256 0.017,7 H 0 V 7.5 8 H 0.017 C 0.263,11.744 3.256,14.736 7,14.982 V 15 H 7.5 8 V 14.982 C 11.744,14.736 14.736,11.744 14.982,8 H 15 V 7.5 7 Z M 4.695,1.635 C 4.212,2.277 3.811,3.082 3.519,4 H 2.021 C 2.673,2.983 3.599,2.16 4.695,1.635 Z M 1.498,5 H 3.256 C 3.122,5.632 3.037,6.303 3.01,7 H 1.019 C 1.072,6.296 1.238,5.623 1.498,5 Z M 1.019,8 H 3.01 c 0.027,0.697 0.112,1.368 0.246,2 H 1.498 C 1.238,9.377 1.072,8.704 1.019,8 Z m 1.002,3 H 3.518 C 3.81,11.918 4.211,12.723 4.695,13.365 3.599,12.84 2.673,12.018 2.021,11 Z M 7,13.936 C 5.972,13.661 5.087,12.557 4.55,11 H 7 Z M 7,10 H 4.269 C 4.128,9.377 4.039,8.704 4.01,8 H 7 Z M 7,7 H 4.01 C 4.039,6.296 4.128,5.623 4.269,5 H 7 Z M 7,4 H 4.55 C 5.087,2.443 5.972,1.339 7,1.065 Z m 5.979,0 H 11.483 C 11.19,3.082 10.79,2.277 10.305,1.635 11.4,2.16 12.327,2.983 12.979,4 Z M 8,1.065 C 9.027,1.339 9.913,2.443 10.45,4 H 8 Z M 8,5 h 2.73 c 0.142,0.623 0.229,1.296 0.26,2 H 8 Z m 0,3 h 2.99 c -0.029,0.704 -0.118,1.377 -0.26,2 H 8 Z m 0,5.936 V 11 h 2.45 C 9.913,12.557 9.027,13.661 8,13.936 Z m 2.305,-0.571 C 10.788,12.722 11.19,11.918 11.483,11 h 1.496 c -0.652,1.018 -1.579,1.84 -2.674,2.365 z M 13.502,10 H 11.744 C 11.878,9.368 11.963,8.697 11.99,8 h 1.99 c -0.052,0.704 -0.218,1.377 -0.478,2 z M 11.99,7 C 11.963,6.303 11.878,5.632 11.744,5 h 1.758 c 0.26,0.623 0.426,1.296 0.479,2 z"
           id="path5355" />
      </g>
      <g
         style="fill:#212121;fill-opacity:1"
         id="g5359" />
      <g
         style="fill:#212121;fill-opacity:1"
         id="g5361" />
      <g
         style="fill:#212121;fill-opacity:1"
         id="g5363" />
      <g
         style="fill:#212121;fill-opacity:1"
         id="g5365" />
      <g
         style="fill:#212121;fill-opacity:1"
         id="g5367" />
      <g
         style="fill:#212121;fill-opacity:1"
         id="g5369" />
      <g
         style="fill:#212121;fill-opacity:1"
         id="g5371" />
      <g
         style="fill:#212121;fill-opacity:1"
         id="g5373" />
      <g
         style="fill:#212121;fill-opacity:1"
         id="g5375" />
      <g
         style="fill:#212121;fill-opacity:1"
         id="g5377" />
      <g
         style="fill:#212121;fill-opacity:1"
         id="g5379" />
      <g
         style="fill:#212121;fill-opacity:1"
         id="g5381" />
      <g
         style="fill:#212121;fill-opacity:1"
         id="g5383" />
      <g
         style="fill:#212121;fill-opacity:1"
         id="g5385" />
      <g
         style="fill:#212121;fill-opacity:1"
         id="g5387" />
    </g>
  </g>
  <style
     type="text/css"
     id="style4485">
	.st0{stroke:#000000;stroke-width:6;stroke-miterlimit:10;}
</style>
  <style
     type="text/css"
     id="style4662">
	.st0{fill:#FFFFFF;}
	.st1{fill:#FFD57E;}
	.st2{filter:url(#Adobe_OpacityMaskFilter);}
	.st3{opacity:0.1;mask:url(#SVGID_1_);}
	.st4{display:none;}
</style>
  <style
     type="text/css"
     id="style4747">
	.st0{fill:#FFFFFF;}
	.st1{fill:#FFD57E;}
	.st2{filter:url(#Adobe_OpacityMaskFilter);}
	.st3{opacity:0.1;mask:url(#SVGID_1_);}
	.st4{display:none;}
</style>
  <style
     type="text/css"
     id="style4832">
	.st0{fill:#FFFFFF;}
	.st1{fill:#B3D5ED;}
	.st2{filter:url(#Adobe_OpacityMaskFilter);}
	.st3{opacity:0.1;mask:url(#SVGID_1_);}
	.st4{display:none;}
</style>
  <style
     type="text/css"
     id="style4917">
	.st0{fill:#FFFFFF;}
	.st1{fill:#AD84C7;}
	.st2{filter:url(#Adobe_OpacityMaskFilter);}
	.st3{opacity:0.1;mask:url(#SVGID_1_);}
	.st4{display:none;}
</style>
  <style
     type="text/css"
     id="style5002">
	.st0{fill-rule:evenodd;clip-rule:evenodd;fill:#FFFFFF;}
</style>
  <style
     type="text/css"
     id="style5021">
	.st0{fill:#FFFFFF;}
</style>
</svg>
