<?xml version="1.0" encoding="UTF-8" standalone="no"?>
<svg
   xmlns:dc="http://purl.org/dc/elements/1.1/"
   xmlns:cc="http://creativecommons.org/ns#"
   xmlns:rdf="http://www.w3.org/1999/02/22-rdf-syntax-ns#"
   xmlns:svg="http://www.w3.org/2000/svg"
   xmlns="http://www.w3.org/2000/svg"
   id="svg8"
   version="1.1"
   viewBox="0 0 7.8670329 5.0337065"
   height="19.025032"
   width="29.733667">
  <defs
     id="defs2">
    <filter
       id="Adobe_OpacityMaskFilter"
       filterUnits="userSpaceOnUse"
       x="2152.8999"
       y="-257.10001"
       width="157"
       height="30.5">
      <feColorMatrix
         style="color-interpolation-filters:sRGB"
         type="matrix"
         values="-1 0 0 0 1  0 -1 0 0 1  0 0 -1 0 1  0 0 0 1 0"
         result="source"
         id="feColorMatrix4682" />
    </filter>
    <filter
       id="Adobe_OpacityMaskFilter-3"
       filterUnits="userSpaceOnUse"
       x="2152.8999"
       y="-257.10001"
       width="157"
       height="30.5">
      <feColorMatrix
         style="color-interpolation-filters:sRGB"
         type="matrix"
         values="-1 0 0 0 1  0 -1 0 0 1  0 0 -1 0 1  0 0 0 1 0"
         result="source"
         id="feColorMatrix4767" />
    </filter>
    <filter
       id="Adobe_OpacityMaskFilter-7"
       filterUnits="userSpaceOnUse"
       x="2152.8999"
       y="-257.10001"
       width="157"
       height="30.5">
      <feColorMatrix
         style="color-interpolation-filters:sRGB"
         type="matrix"
         values="-1 0 0 0 1  0 -1 0 0 1  0 0 -1 0 1  0 0 0 1 0"
         result="source"
         id="feColorMatrix4852" />
    </filter>
    <filter
       id="Adobe_OpacityMaskFilter-0"
       filterUnits="userSpaceOnUse"
       x="2152.8999"
       y="-257.10001"
       width="157"
       height="30.5">
      <feColorMatrix
         style="color-interpolation-filters:sRGB"
         type="matrix"
         values="-1 0 0 0 1  0 -1 0 0 1  0 0 -1 0 1  0 0 0 1 0"
         result="source"
         id="feColorMatrix4937" />
    </filter>
  </defs>
  <metadata
     id="metadata5">
    <rdf:RDF>
      <cc:Work
         rdf:about="">
        <dc:format>image/svg+xml</dc:format>
        <dc:type
           rdf:resource="http://purl.org/dc/dcmitype/StillImage" />
        <dc:title></dc:title>
      </cc:Work>
    </rdf:RDF>
  </metadata>
  <g
     transform="translate(-8.2845025,-72.69021)"
     id="layer1">
    <g
       style="fill:#212121;fill-opacity:1"
       transform="matrix(0.01716772,0,0,0.01716772,8.2844964,71.27354)"
       id="g5230">
      <g
         style="fill:#212121;fill-opacity:1"
         id="g5173">
        <path
           style="fill:#212121;fill-opacity:1"
           d="m 160.777,259.368 h 71.594 c -12.567,35.53 -46.603,61.004 -86.45,60.71 -48.349,-0.357 -88.327,-39.035 -90.204,-87.349 -2.012,-51.789 39.537,-94.563 90.887,-94.563 23.479,0 44.905,8.946 61.058,23.605 3.826,3.473 9.65,3.495 13.413,-0.047 l 26.296,-24.749 c 4.112,-3.871 4.127,-10.408 0.027,-14.292 C 221.781,98.414 187.417,83.287 149.522,82.547 68.696,80.969 0.567,147.238 0.004,228.078 c -0.568,81.447 65.285,147.649 146.6,147.649 78.199,0 142.081,-61.229 146.36,-138.358 0.114,-0.967 0.189,-33.648 0.189,-33.648 H 160.777 c -5.426,0 -9.824,4.398 -9.824,9.824 v 35.999 c 0,5.426 4.399,9.824 9.824,9.824 z"
           id="path5169" />
        <path
           style="fill:#212121;fill-opacity:1"
           d="m 414.464,206.99 v -35.173 c 0,-4.755 -3.854,-8.609 -8.609,-8.609 h -29.604 c -4.755,0 -8.609,3.854 -8.609,8.609 v 35.173 h -35.173 c -4.755,0 -8.609,3.854 -8.609,8.609 v 29.604 c 0,4.755 3.854,8.609 8.609,8.609 h 35.173 v 35.173 c 0,4.755 3.854,8.609 8.609,8.609 h 29.604 c 4.755,0 8.609,-3.854 8.609,-8.609 v -35.173 h 35.173 c 4.755,0 8.609,-3.854 8.609,-8.609 v -29.604 c 0,-4.755 -3.854,-8.609 -8.609,-8.609 z"
           id="path5171" />
      </g>
      <g
         style="fill:#212121;fill-opacity:1"
         id="g5175" />
      <g
         style="fill:#212121;fill-opacity:1"
         id="g5177" />
      <g
         style="fill:#212121;fill-opacity:1"
         id="g5179" />
      <g
         style="fill:#212121;fill-opacity:1"
         id="g5181" />
      <g
         style="fill:#212121;fill-opacity:1"
         id="g5183" />
      <g
         style="fill:#212121;fill-opacity:1"
         id="g5185" />
      <g
         style="fill:#212121;fill-opacity:1"
         id="g5187" />
      <g
         style="fill:#212121;fill-opacity:1"
         id="g5189" />
      <g
         style="fill:#212121;fill-opacity:1"
         id="g5191" />
      <g
         style="fill:#212121;fill-opacity:1"
         id="g5193" />
      <g
         style="fill:#212121;fill-opacity:1"
         id="g5195" />
      <g
         style="fill:#212121;fill-opacity:1"
         id="g5197" />
      <g
         style="fill:#212121;fill-opacity:1"
         id="g5199" />
      <g
         style="fill:#212121;fill-opacity:1"
         id="g5201" />
      <g
         style="fill:#212121;fill-opacity:1"
         id="g5203" />
    </g>
  </g>
  <style
     type="text/css"
     id="style4485">
	.st0{stroke:#000000;stroke-width:6;stroke-miterlimit:10;}
</style>
  <style
     type="text/css"
     id="style4662">
	.st0{fill:#FFFFFF;}
	.st1{fill:#FFD57E;}
	.st2{filter:url(#Adobe_OpacityMaskFilter);}
	.st3{opacity:0.1;mask:url(#SVGID_1_);}
	.st4{display:none;}
</style>
  <style
     type="text/css"
     id="style4747">
	.st0{fill:#FFFFFF;}
	.st1{fill:#FFD57E;}
	.st2{filter:url(#Adobe_OpacityMaskFilter);}
	.st3{opacity:0.1;mask:url(#SVGID_1_);}
	.st4{display:none;}
</style>
  <style
     type="text/css"
     id="style4832">
	.st0{fill:#FFFFFF;}
	.st1{fill:#B3D5ED;}
	.st2{filter:url(#Adobe_OpacityMaskFilter);}
	.st3{opacity:0.1;mask:url(#SVGID_1_);}
	.st4{display:none;}
</style>
  <style
     type="text/css"
     id="style4917">
	.st0{fill:#FFFFFF;}
	.st1{fill:#AD84C7;}
	.st2{filter:url(#Adobe_OpacityMaskFilter);}
	.st3{opacity:0.1;mask:url(#SVGID_1_);}
	.st4{display:none;}
</style>
  <style
     type="text/css"
     id="style5002">
	.st0{fill-rule:evenodd;clip-rule:evenodd;fill:#FFFFFF;}
</style>
  <style
     type="text/css"
     id="style5021">
	.st0{fill:#FFFFFF;}
</style>
</svg>
