<?xml version="1.0" encoding="UTF-8" standalone="no"?>
<svg
   xmlns:dc="http://purl.org/dc/elements/1.1/"
   xmlns:cc="http://creativecommons.org/ns#"
   xmlns:rdf="http://www.w3.org/1999/02/22-rdf-syntax-ns#"
   xmlns:svg="http://www.w3.org/2000/svg"
   xmlns="http://www.w3.org/2000/svg"
   id="svg8"
   version="1.1"
   viewBox="0 0 4.77366 6.1396844"
   height="23.205107"
   width="18.042179">
  <defs
     id="defs2">
    <filter
       id="Adobe_OpacityMaskFilter"
       filterUnits="userSpaceOnUse"
       x="2152.8999"
       y="-257.10001"
       width="157"
       height="30.5">
      <feColorMatrix
         style="color-interpolation-filters:sRGB"
         type="matrix"
         values="-1 0 0 0 1  0 -1 0 0 1  0 0 -1 0 1  0 0 0 1 0"
         result="source"
         id="feColorMatrix4682" />
    </filter>
    <filter
       id="Adobe_OpacityMaskFilter-3"
       filterUnits="userSpaceOnUse"
       x="2152.8999"
       y="-257.10001"
       width="157"
       height="30.5">
      <feColorMatrix
         style="color-interpolation-filters:sRGB"
         type="matrix"
         values="-1 0 0 0 1  0 -1 0 0 1  0 0 -1 0 1  0 0 0 1 0"
         result="source"
         id="feColorMatrix4767" />
    </filter>
    <filter
       id="Adobe_OpacityMaskFilter-7"
       filterUnits="userSpaceOnUse"
       x="2152.8999"
       y="-257.10001"
       width="157"
       height="30.5">
      <feColorMatrix
         style="color-interpolation-filters:sRGB"
         type="matrix"
         values="-1 0 0 0 1  0 -1 0 0 1  0 0 -1 0 1  0 0 0 1 0"
         result="source"
         id="feColorMatrix4852" />
    </filter>
    <filter
       id="Adobe_OpacityMaskFilter-0"
       filterUnits="userSpaceOnUse"
       x="2152.8999"
       y="-257.10001"
       width="157"
       height="30.5">
      <feColorMatrix
         style="color-interpolation-filters:sRGB"
         type="matrix"
         values="-1 0 0 0 1  0 -1 0 0 1  0 0 -1 0 1  0 0 0 1 0"
         result="source"
         id="feColorMatrix4937" />
    </filter>
  </defs>
  <metadata
     id="metadata5">
    <rdf:RDF>
      <cc:Work
         rdf:about="">
        <dc:format>image/svg+xml</dc:format>
        <dc:type
           rdf:resource="http://purl.org/dc/dcmitype/StillImage" />
        <dc:title></dc:title>
      </cc:Work>
    </rdf:RDF>
  </metadata>
  <g
     transform="translate(-10.30699,-72.856515)"
     id="layer1">
    <g
       style="fill:#a5d6ee;fill-opacity:1"
       id="layer1-4"
       transform="translate(-140.45712,-70.868068)">
      <path
         style="fill:#a5d6ee;fill-opacity:1;stroke-width:0.00409397"
         d="m 153.1033,149.86189 c -0.1396,-0.0193 -0.25766,-0.12991 -0.28622,-0.26816 -0.006,-0.0286 -0.006,-0.24793 -0.006,-2.36829 v -2.33678 l -0.74613,0.74543 c -0.49604,0.49559 -0.75407,0.75058 -0.76985,0.76076 -0.0322,0.0208 -0.0716,0.0382 -0.10894,0.048 -0.0373,0.009 -0.11248,0.0118 -0.14983,0.004 -0.12035,-0.0259 -0.21703,-0.1125 -0.25627,-0.22961 -0.0236,-0.0705 -0.0208,-0.16263 0.007,-0.23099 0.0279,-0.0685 -0.0324,-0.006 1.09217,-1.13159 0.57673,-0.57716 1.05984,-1.05751 1.07359,-1.06744 0.0539,-0.039 0.11188,-0.0587 0.18198,-0.0621 0.0777,-0.004 0.14353,0.0143 0.2061,0.0566 0.0216,0.0146 0.29691,0.28762 1.0797,1.07096 1.12672,1.12751 1.06634,1.06498 1.09422,1.13356 0.0278,0.0685 0.0306,0.16061 0.007,0.231 -0.0306,0.0908 -0.091,0.16049 -0.17427,0.2008 -0.0497,0.024 -0.0895,0.0332 -0.14542,0.0337 -0.0527,3.7e-4 -0.0817,-0.004 -0.12778,-0.0224 -0.0709,-0.0271 -0.0375,0.004 -0.83943,-0.79697 l -0.74408,-0.74368 v 2.33678 c 0,2.12037 -7.7e-4,2.33969 -0.006,2.36829 -0.0326,0.15767 -0.17705,0.27347 -0.33738,0.27045 -0.0169,-3.5e-4 -0.0364,-0.001 -0.0431,-0.002 z"
         id="path4548" />
    </g>
  </g>
  <style
     type="text/css"
     id="style4485">
	.st0{stroke:#000000;stroke-width:6;stroke-miterlimit:10;}
</style>
  <style
     type="text/css"
     id="style4662">
	.st0{fill:#FFFFFF;}
	.st1{fill:#FFD57E;}
	.st2{filter:url(#Adobe_OpacityMaskFilter);}
	.st3{opacity:0.1;mask:url(#SVGID_1_);}
	.st4{display:none;}
</style>
  <style
     type="text/css"
     id="style4747">
	.st0{fill:#FFFFFF;}
	.st1{fill:#FFD57E;}
	.st2{filter:url(#Adobe_OpacityMaskFilter);}
	.st3{opacity:0.1;mask:url(#SVGID_1_);}
	.st4{display:none;}
</style>
  <style
     type="text/css"
     id="style4832">
	.st0{fill:#FFFFFF;}
	.st1{fill:#B3D5ED;}
	.st2{filter:url(#Adobe_OpacityMaskFilter);}
	.st3{opacity:0.1;mask:url(#SVGID_1_);}
	.st4{display:none;}
</style>
  <style
     type="text/css"
     id="style4917">
	.st0{fill:#FFFFFF;}
	.st1{fill:#AD84C7;}
	.st2{filter:url(#Adobe_OpacityMaskFilter);}
	.st3{opacity:0.1;mask:url(#SVGID_1_);}
	.st4{display:none;}
</style>
  <style
     type="text/css"
     id="style5002">
	.st0{fill-rule:evenodd;clip-rule:evenodd;fill:#FFFFFF;}
</style>
  <style
     type="text/css"
     id="style5021">
	.st0{fill:#FFFFFF;}
</style>
</svg>
